<svg width="1436" height="277" viewBox="0 0 1436 277" fill="none" xmlns="http://www.w3.org/2000/svg">
<path d="M136.839 169.013L134.739 95.0127L95.3386 106.213L37.5386 172.413L45.9386 186.713L136.839 169.013Z" fill="#A56A2A"/>
<path d="M139.938 179.713L49.9385 197.613L87.7385 264.013L139.938 179.713Z" fill="#A56A2A"/>
<path d="M147.738 188.013L226.238 273.813L96.4385 269.813L147.738 188.013Z" fill="#A56A2A"/>
<path d="M3.13837 24.3125C0.63837 23.0125 -0.661626 20.0125 0.338374 17.4125C0.438374 17.2125 0.53837 17.0125 0.63837 16.8125C1.93837 14.8125 5.13837 11.1125 7.43837 9.0125C9.73837 6.9125 16.1384 2.6125 17.9384 1.5125C19.7384 0.4125 21.0384 -0.0875 22.5384 0.0125C24.0384 0.1125 24.8384 1.7125 26.8384 2.5125C28.8384 3.3125 39.7384 7.3125 42.1384 7.8125C44.5384 8.3125 49.3384 9.8125 51.5384 9.8125C53.7384 9.8125 53.2384 9.7125 54.8384 8.5125C56.4384 7.3125 61.4384 4.2125 63.5384 3.6125C65.6384 3.0125 72.9384 1.4125 80.5384 1.6125C88.0384 1.9125 91.2384 3.5125 94.2384 3.4125C97.2384 3.3125 105.438 1.8125 112.238 2.6125C118.938 3.4125 124.138 4.8125 126.738 5.9125C129.338 7.0125 132.838 9.3125 133.838 9.4125C134.838 9.5125 140.838 7.7125 144.538 7.1125C148.238 6.5125 151.338 5.9125 151.638 6.5125C151.938 7.1125 149.238 15.2125 148.538 16.8125C147.838 18.4125 147.538 19.3125 147.538 19.3125L172.138 45.8125L189.438 63.2125L168.238 57.4125L194.238 112.812L168.738 96.9125L193.838 166.312L172.338 147.512C172.338 147.512 182.338 215.212 241.938 217.512C241.938 217.512 285.738 219.513 289.638 161.613C289.638 161.613 292.038 127.012 261.038 115.912C261.038 115.912 246.238 112.213 247.038 110.613C247.838 109.013 260.338 107.512 268.038 107.712C275.738 107.812 287.438 110.912 293.538 113.412C299.638 115.812 298.538 117.212 297.338 117.512C296.238 117.812 293.738 118.713 295.538 119.613C297.338 120.513 305.238 123.712 311.038 127.412C316.838 131.212 317.838 133.512 318.138 134.912C318.338 136.412 310.338 134.513 310.838 135.812C311.338 137.112 318.438 143.412 320.938 146.812C323.338 150.213 327.038 155.512 327.538 158.712C328.038 161.912 325.838 160.913 324.738 160.312C323.638 159.712 321.338 158.413 319.938 160.113C318.438 161.813 319.838 165.312 320.238 168.812C320.638 172.312 321.938 180.012 319.238 188.012C316.538 196.012 309.638 212.613 292.038 229.213C274.438 245.813 238.138 270.312 238.138 270.312L151.638 171.012L141.538 75.9125C141.538 75.9125 122.738 80.9125 110.238 83.0125C97.7384 85.1125 91.2384 86.6125 84.9384 85.6125C78.6384 84.7125 78.2384 81.6125 76.6384 80.2125C75.0384 78.7125 73.2384 75.0125 62.2384 74.6125C51.2384 74.3125 35.7384 74.7125 27.7384 73.9125C19.7384 73.1125 15.5384 69.3125 12.8384 66.5125C9.23837 62.8125 4.73837 52.5125 8.93837 52.7125C13.1384 52.9125 14.8384 54.3125 20.6384 54.6125C26.5384 54.9125 26.0384 51.0125 28.2384 50.3125C30.4384 49.6125 36.5384 51.3125 46.7384 50.3125C56.9384 49.3125 58.6384 48.7125 58.6384 48.7125C58.6384 48.7125 51.2384 39.8125 39.8384 36.9125C28.4384 34.0125 12.3384 29.3125 6.23837 26.2125C5.13837 25.3125 4.03837 24.7125 3.13837 24.3125Z" fill="#A56A2A"/>
<path d="M256.038 125.613L253.838 124.312C238.838 143.212 226.138 146.612 204.638 137.412L202.838 139.912C220.838 154.712 223.638 167.513 214.038 189.113L216.438 190.512C231.238 172.112 243.938 168.812 265.138 178.012L266.938 175.512C248.738 160.512 246.038 147.613 256.038 125.613Z" fill="#1E1E20"/>
<path d="M385.038 260.113V117.913C385.038 115.413 384.438 113.413 383.338 112.113C382.138 110.813 380.138 109.713 377.138 108.913V105.013H470.938C491.438 105.013 507.238 107.313 518.238 112.013C534.038 118.813 545.638 130.113 553.238 145.713C559.238 158.013 562.238 172.413 562.238 188.913C562.238 217.913 553.338 240.013 535.538 255.113C528.038 261.513 519.338 266.113 509.338 268.813C499.338 271.613 486.538 272.913 471.038 272.913H377.238V269.013C380.238 268.213 382.238 267.113 383.438 265.813C384.538 264.613 385.038 262.713 385.038 260.113ZM421.738 245.413H467.838C482.538 245.413 493.638 243.413 501.038 239.413C516.938 230.813 524.838 214.013 524.838 189.013C524.838 170.913 520.538 157.113 512.038 147.513C507.238 142.213 501.538 138.413 494.738 136.113C488.038 133.813 479.038 132.713 467.838 132.713H421.738V245.413Z" fill="#1E1E20"/>
<path d="M646.838 204.513V260.313C646.838 262.813 647.438 264.713 648.638 266.013C649.838 267.413 651.838 268.413 654.738 269.113V273.013H602.238V269.113C605.238 268.313 607.238 267.213 608.438 265.913C609.538 264.613 610.138 262.713 610.138 260.213V117.913C610.138 115.413 609.538 113.413 608.438 112.113C607.238 110.813 605.238 109.713 602.238 108.913V105.013H707.438C720.238 105.013 730.438 105.713 737.938 107.213C745.438 108.713 752.038 111.313 757.538 115.013C764.038 119.313 768.838 125.113 772.038 132.413C775.038 139.513 776.638 147.013 776.638 155.113C776.638 182.513 761.438 198.613 730.938 203.213L763.538 249.613C769.238 257.713 773.538 263.013 776.138 265.313C778.838 267.613 782.038 268.913 785.938 269.213V273.113H725.238V269.213C729.438 268.513 731.538 267.113 731.538 264.813C731.538 263.313 729.638 259.813 725.738 254.113L691.738 204.613H646.838V204.513ZM646.838 176.813H703.438C711.838 176.813 717.738 176.613 721.138 176.113C724.538 175.613 727.738 174.613 730.638 173.013C736.838 169.613 740.038 163.613 740.038 154.813C740.038 146.013 736.938 139.913 730.638 136.613C727.638 135.013 724.538 133.913 721.238 133.513C717.938 133.013 711.938 132.813 703.438 132.813H646.838V176.813Z" fill="#1E1E20"/>
<path d="M942.938 230.213H866.538L855.238 253.813C853.638 257.113 852.938 259.713 852.938 261.613C852.938 265.213 855.638 267.713 861.138 269.113V273.013H805.538V269.113C808.838 268.413 811.338 267.313 813.038 265.713C814.738 264.113 816.738 260.913 818.938 256.113L880.738 126.913C882.738 122.813 883.738 119.513 883.738 117.013C883.738 113.213 881.338 110.513 876.638 108.913V105.013H936.238V108.913C931.438 110.313 928.938 112.713 928.938 116.213C928.938 118.613 929.738 121.313 931.238 124.313L995.238 253.813C997.938 259.313 1000.34 263.113 1002.34 265.113C1004.44 267.113 1007.14 268.413 1010.64 269.113V273.013H948.738V269.113C954.138 268.213 956.938 265.713 956.938 261.513C956.938 259.813 956.138 257.213 954.438 253.913L942.938 230.213ZM932.338 207.213L905.038 147.313L877.338 207.213H932.338Z" fill="#1E1E20"/>
<path d="M1188.74 215.313L1212.14 250.313L1208.94 252.513C1206.64 250.413 1204.74 249.313 1203.24 249.313C1201.74 249.313 1197.64 251.313 1190.84 255.213C1176.74 263.313 1164.84 268.813 1155.24 271.713C1145.64 274.513 1134.14 276.013 1120.84 276.013C1094.34 276.013 1072.54 269.713 1055.54 257.213C1045.54 249.913 1037.64 240.813 1031.94 230.013C1025.34 217.613 1021.94 203.913 1021.94 189.013C1021.94 168.613 1027.94 151.013 1039.84 135.913C1057.74 113.313 1084.74 102.013 1120.94 102.013C1134.24 102.013 1145.64 103.413 1155.14 106.213C1164.64 109.013 1176.54 114.513 1190.84 122.713C1197.64 126.613 1201.84 128.513 1203.24 128.513C1204.64 128.513 1206.64 127.413 1208.94 125.313L1212.14 127.513L1188.74 162.613L1185.44 160.413C1185.64 159.113 1185.64 158.013 1185.64 157.113C1185.64 154.713 1184.64 152.513 1182.54 150.413C1180.44 148.313 1176.84 145.813 1171.54 142.913C1157.04 134.713 1141.64 130.613 1125.34 130.613C1106.14 130.613 1090.84 135.413 1079.44 145.013C1065.94 156.213 1059.24 170.913 1059.24 189.013C1059.24 207.113 1065.94 221.813 1079.44 233.013C1090.84 242.613 1106.14 247.413 1125.34 247.413C1141.64 247.413 1156.94 243.313 1171.54 235.113C1176.84 232.113 1180.44 229.613 1182.54 227.513C1184.64 225.413 1185.64 223.213 1185.64 220.813C1185.64 219.913 1185.54 218.813 1185.44 217.613L1188.74 215.313Z" fill="#1E1E20"/>
<path d="M1338.64 102.013C1367.94 102.013 1391.24 109.913 1408.34 125.813C1426.54 142.413 1435.54 163.813 1435.54 190.113C1435.54 206.213 1431.14 221.213 1422.44 235.213C1405.44 262.513 1377.54 276.113 1338.74 276.113C1309.64 276.113 1286.54 268.213 1269.34 252.313C1260.14 243.813 1253.14 233.713 1248.44 221.913C1244.24 211.513 1242.14 200.513 1242.14 189.013C1242.14 172.213 1246.44 156.813 1255.04 142.813C1271.74 116.113 1299.54 102.513 1338.64 102.013ZM1338.74 130.613C1322.74 130.613 1309.34 135.413 1298.64 144.913C1285.94 156.113 1279.64 170.913 1279.64 189.113C1279.64 207.313 1285.94 222.013 1298.64 233.313C1309.34 242.813 1322.74 247.613 1338.94 247.613C1355.14 247.613 1368.54 242.813 1379.14 233.313C1385.44 227.613 1390.34 220.713 1393.64 212.513C1396.64 205.213 1398.04 197.713 1398.04 189.913C1398.04 170.913 1391.74 155.913 1379.04 145.013C1368.44 135.513 1354.94 130.813 1338.74 130.613Z" fill="#1E1E20"/>
</svg>
